<mxfile host="Electron" agent="Mozilla/5.0 (Windows NT 10.0; Win64; x64) AppleWebKit/537.36 (KHTML, like Gecko) draw.io/24.7.5 Chrome/126.0.6478.183 Electron/31.3.0 Safari/537.36" version="24.7.5">
  <diagram name="合并K线" id="Wlh-KiL8eT8eEFKsj3go">
    <mxGraphModel dx="989" dy="577" grid="1" gridSize="10" guides="1" tooltips="1" connect="1" arrows="1" fold="1" page="1" pageScale="1" pageWidth="827" pageHeight="1169" math="0" shadow="0">
      <root>
        <mxCell id="0" />
        <mxCell id="1" parent="0" />
        <mxCell id="z5o7_3_p9fjKzpceReI_-54" value="简单包含K线处理" style="rounded=1;whiteSpace=wrap;html=1;fillColor=#dae8fc;strokeColor=#6c8ebf;verticalAlign=top;align=left;" parent="1" vertex="1">
          <mxGeometry x="560" y="270" width="280" height="270" as="geometry" />
        </mxCell>
        <mxCell id="z5o7_3_p9fjKzpceReI_-7" style="edgeStyle=orthogonalEdgeStyle;rounded=0;orthogonalLoop=1;jettySize=auto;html=1;exitX=0.5;exitY=1;exitDx=0;exitDy=0;" parent="1" source="z5o7_3_p9fjKzpceReI_-1" target="z5o7_3_p9fjKzpceReI_-6" edge="1">
          <mxGeometry relative="1" as="geometry" />
        </mxCell>
        <mxCell id="z5o7_3_p9fjKzpceReI_-1" value="独立K线处理" style="rounded=1;whiteSpace=wrap;html=1;" parent="1" vertex="1">
          <mxGeometry x="190" y="421" width="120" height="30" as="geometry" />
        </mxCell>
        <mxCell id="z5o7_3_p9fjKzpceReI_-4" style="edgeStyle=orthogonalEdgeStyle;rounded=0;orthogonalLoop=1;jettySize=auto;html=1;exitX=0.5;exitY=1;exitDx=0;exitDy=0;entryX=0.5;entryY=0;entryDx=0;entryDy=0;" parent="1" source="z5o7_3_p9fjKzpceReI_-2" target="z5o7_3_p9fjKzpceReI_-1" edge="1">
          <mxGeometry relative="1" as="geometry" />
        </mxCell>
        <mxCell id="z5o7_3_p9fjKzpceReI_-5" style="edgeStyle=orthogonalEdgeStyle;rounded=0;orthogonalLoop=1;jettySize=auto;html=1;exitX=1;exitY=0.5;exitDx=0;exitDy=0;entryX=0.5;entryY=0;entryDx=0;entryDy=0;" parent="1" source="z5o7_3_p9fjKzpceReI_-2" target="z5o7_3_p9fjKzpceReI_-3" edge="1">
          <mxGeometry relative="1" as="geometry" />
        </mxCell>
        <mxCell id="z5o7_3_p9fjKzpceReI_-2" value="独立K线" style="rhombus;whiteSpace=wrap;html=1;" parent="1" vertex="1">
          <mxGeometry x="210" y="360" width="80" height="40" as="geometry" />
        </mxCell>
        <mxCell id="z5o7_3_p9fjKzpceReI_-43" style="edgeStyle=orthogonalEdgeStyle;rounded=0;orthogonalLoop=1;jettySize=auto;html=1;exitX=0.5;exitY=1;exitDx=0;exitDy=0;" parent="1" source="z5o7_3_p9fjKzpceReI_-3" target="z5o7_3_p9fjKzpceReI_-6" edge="1">
          <mxGeometry relative="1" as="geometry">
            <Array as="points">
              <mxPoint x="430" y="460" />
              <mxPoint x="250" y="460" />
            </Array>
          </mxGeometry>
        </mxCell>
        <mxCell id="z5o7_3_p9fjKzpceReI_-3" value="简单包含K线处理" style="rounded=1;whiteSpace=wrap;html=1;fillColor=#dae8fc;strokeColor=#6c8ebf;" parent="1" vertex="1">
          <mxGeometry x="370" y="410" width="120" height="30" as="geometry" />
        </mxCell>
        <mxCell id="z5o7_3_p9fjKzpceReI_-14" style="edgeStyle=orthogonalEdgeStyle;rounded=0;orthogonalLoop=1;jettySize=auto;html=1;exitX=0.5;exitY=1;exitDx=0;exitDy=0;entryX=0.5;entryY=0;entryDx=0;entryDy=0;" parent="1" source="z5o7_3_p9fjKzpceReI_-6" target="z5o7_3_p9fjKzpceReI_-9" edge="1">
          <mxGeometry relative="1" as="geometry">
            <mxPoint x="250" y="549" as="targetPoint" />
          </mxGeometry>
        </mxCell>
        <mxCell id="z5o7_3_p9fjKzpceReI_-6" value="下一根K线设为当前K线" style="rounded=1;whiteSpace=wrap;html=1;" parent="1" vertex="1">
          <mxGeometry x="190" y="476" width="120" height="30" as="geometry" />
        </mxCell>
        <mxCell id="z5o7_3_p9fjKzpceReI_-15" style="edgeStyle=orthogonalEdgeStyle;rounded=0;orthogonalLoop=1;jettySize=auto;html=1;exitX=0.5;exitY=1;exitDx=0;exitDy=0;" parent="1" source="z5o7_3_p9fjKzpceReI_-9" target="z5o7_3_p9fjKzpceReI_-12" edge="1">
          <mxGeometry relative="1" as="geometry" />
        </mxCell>
        <mxCell id="z5o7_3_p9fjKzpceReI_-35" style="edgeStyle=orthogonalEdgeStyle;rounded=0;orthogonalLoop=1;jettySize=auto;html=1;exitX=1;exitY=0.5;exitDx=0;exitDy=0;entryX=0.5;entryY=0;entryDx=0;entryDy=0;" parent="1" source="z5o7_3_p9fjKzpceReI_-9" target="z5o7_3_p9fjKzpceReI_-37" edge="1">
          <mxGeometry relative="1" as="geometry">
            <mxPoint x="250" y="766" as="targetPoint" />
            <Array as="points">
              <mxPoint x="510" y="560" />
              <mxPoint x="510" y="823" />
              <mxPoint x="250" y="823" />
            </Array>
          </mxGeometry>
        </mxCell>
        <mxCell id="z5o7_3_p9fjKzpceReI_-9" value="不是最后一根" style="rhombus;whiteSpace=wrap;html=1;" parent="1" vertex="1">
          <mxGeometry x="210" y="540" width="80" height="40" as="geometry" />
        </mxCell>
        <mxCell id="z5o7_3_p9fjKzpceReI_-27" style="edgeStyle=orthogonalEdgeStyle;rounded=0;orthogonalLoop=1;jettySize=auto;html=1;" parent="1" source="z5o7_3_p9fjKzpceReI_-11" target="z5o7_3_p9fjKzpceReI_-23" edge="1">
          <mxGeometry relative="1" as="geometry" />
        </mxCell>
        <mxCell id="z5o7_3_p9fjKzpceReI_-11" value="独立K线处理" style="rounded=1;whiteSpace=wrap;html=1;" parent="1" vertex="1">
          <mxGeometry x="190" y="655" width="120" height="30" as="geometry" />
        </mxCell>
        <mxCell id="z5o7_3_p9fjKzpceReI_-16" style="edgeStyle=orthogonalEdgeStyle;rounded=0;orthogonalLoop=1;jettySize=auto;html=1;exitX=0.5;exitY=1;exitDx=0;exitDy=0;" parent="1" source="z5o7_3_p9fjKzpceReI_-12" target="z5o7_3_p9fjKzpceReI_-11" edge="1">
          <mxGeometry relative="1" as="geometry" />
        </mxCell>
        <mxCell id="z5o7_3_p9fjKzpceReI_-26" style="edgeStyle=orthogonalEdgeStyle;rounded=0;orthogonalLoop=1;jettySize=auto;html=1;exitX=1;exitY=0.5;exitDx=0;exitDy=0;entryX=0.5;entryY=0;entryDx=0;entryDy=0;" parent="1" source="z5o7_3_p9fjKzpceReI_-12" target="z5o7_3_p9fjKzpceReI_-13" edge="1">
          <mxGeometry relative="1" as="geometry">
            <mxPoint x="424" y="633" as="targetPoint" />
          </mxGeometry>
        </mxCell>
        <mxCell id="z5o7_3_p9fjKzpceReI_-12" value="独立K线" style="rhombus;whiteSpace=wrap;html=1;" parent="1" vertex="1">
          <mxGeometry x="210" y="595" width="80" height="40" as="geometry" />
        </mxCell>
        <mxCell id="z5o7_3_p9fjKzpceReI_-28" style="edgeStyle=orthogonalEdgeStyle;rounded=0;orthogonalLoop=1;jettySize=auto;html=1;exitX=0.5;exitY=1;exitDx=0;exitDy=0;entryX=0.5;entryY=0;entryDx=0;entryDy=0;" parent="1" source="z5o7_3_p9fjKzpceReI_-13" target="z5o7_3_p9fjKzpceReI_-23" edge="1">
          <mxGeometry relative="1" as="geometry">
            <Array as="points">
              <mxPoint x="430" y="693" />
              <mxPoint x="250" y="693" />
            </Array>
          </mxGeometry>
        </mxCell>
        <mxCell id="z5o7_3_p9fjKzpceReI_-13" value="复杂包含K线处理" style="rounded=1;whiteSpace=wrap;html=1;fillColor=#dae8fc;strokeColor=#6c8ebf;" parent="1" vertex="1">
          <mxGeometry x="370" y="635" width="120" height="30" as="geometry" />
        </mxCell>
        <mxCell id="z5o7_3_p9fjKzpceReI_-42" style="edgeStyle=orthogonalEdgeStyle;rounded=0;orthogonalLoop=1;jettySize=auto;html=1;exitX=0.5;exitY=1;exitDx=0;exitDy=0;" parent="1" source="z5o7_3_p9fjKzpceReI_-23" target="z5o7_3_p9fjKzpceReI_-36" edge="1">
          <mxGeometry relative="1" as="geometry" />
        </mxCell>
        <mxCell id="z5o7_3_p9fjKzpceReI_-23" value="下一根K线设为当前K线" style="rounded=1;whiteSpace=wrap;html=1;" parent="1" vertex="1">
          <mxGeometry x="190" y="711" width="120" height="30" as="geometry" />
        </mxCell>
        <mxCell id="z5o7_3_p9fjKzpceReI_-34" style="edgeStyle=orthogonalEdgeStyle;rounded=0;orthogonalLoop=1;jettySize=auto;html=1;" parent="1" source="z5o7_3_p9fjKzpceReI_-31" edge="1">
          <mxGeometry relative="1" as="geometry">
            <mxPoint x="250" y="343" as="sourcePoint" />
            <mxPoint x="250" y="361" as="targetPoint" />
          </mxGeometry>
        </mxCell>
        <mxCell id="z5o7_3_p9fjKzpceReI_-31" value="开始" style="shape=hexagon;perimeter=hexagonPerimeter2;whiteSpace=wrap;html=1;fixedSize=1;" parent="1" vertex="1">
          <mxGeometry x="190" y="310" width="120" height="30" as="geometry" />
        </mxCell>
        <mxCell id="z5o7_3_p9fjKzpceReI_-38" style="edgeStyle=orthogonalEdgeStyle;rounded=0;orthogonalLoop=1;jettySize=auto;html=1;exitX=0.5;exitY=1;exitDx=0;exitDy=0;" parent="1" source="z5o7_3_p9fjKzpceReI_-36" target="z5o7_3_p9fjKzpceReI_-37" edge="1">
          <mxGeometry relative="1" as="geometry" />
        </mxCell>
        <mxCell id="z5o7_3_p9fjKzpceReI_-39" style="edgeStyle=orthogonalEdgeStyle;rounded=0;orthogonalLoop=1;jettySize=auto;html=1;exitX=0.5;exitY=1;exitDx=0;exitDy=0;entryX=0.5;entryY=0;entryDx=0;entryDy=0;" parent="1" source="z5o7_3_p9fjKzpceReI_-36" target="z5o7_3_p9fjKzpceReI_-9" edge="1">
          <mxGeometry relative="1" as="geometry">
            <Array as="points">
              <mxPoint x="250" y="810" />
              <mxPoint x="150" y="810" />
              <mxPoint x="150" y="520" />
              <mxPoint x="250" y="520" />
            </Array>
          </mxGeometry>
        </mxCell>
        <mxCell id="z5o7_3_p9fjKzpceReI_-36" value="做结束判断" style="rounded=1;whiteSpace=wrap;html=1;" parent="1" vertex="1">
          <mxGeometry x="190" y="773" width="120" height="30" as="geometry" />
        </mxCell>
        <mxCell id="z5o7_3_p9fjKzpceReI_-37" value="结束" style="shape=hexagon;perimeter=hexagonPerimeter2;whiteSpace=wrap;html=1;fixedSize=1;" parent="1" vertex="1">
          <mxGeometry x="190" y="840" width="120" height="30" as="geometry" />
        </mxCell>
        <mxCell id="z5o7_3_p9fjKzpceReI_-53" style="edgeStyle=orthogonalEdgeStyle;rounded=0;orthogonalLoop=1;jettySize=auto;html=1;exitX=0.5;exitY=1;exitDx=0;exitDy=0;" parent="1" source="z5o7_3_p9fjKzpceReI_-45" target="z5o7_3_p9fjKzpceReI_-51" edge="1">
          <mxGeometry relative="1" as="geometry" />
        </mxCell>
        <mxCell id="z5o7_3_p9fjKzpceReI_-45" value="右包含处理" style="rounded=1;whiteSpace=wrap;html=1;" parent="1" vertex="1">
          <mxGeometry x="630" y="410" width="80" height="30" as="geometry" />
        </mxCell>
        <mxCell id="z5o7_3_p9fjKzpceReI_-48" style="edgeStyle=orthogonalEdgeStyle;rounded=0;orthogonalLoop=1;jettySize=auto;html=1;exitX=0.5;exitY=1;exitDx=0;exitDy=0;" parent="1" source="z5o7_3_p9fjKzpceReI_-46" target="z5o7_3_p9fjKzpceReI_-45" edge="1">
          <mxGeometry relative="1" as="geometry" />
        </mxCell>
        <mxCell id="z5o7_3_p9fjKzpceReI_-49" style="edgeStyle=orthogonalEdgeStyle;rounded=0;orthogonalLoop=1;jettySize=auto;html=1;exitX=1;exitY=0.5;exitDx=0;exitDy=0;entryX=0.5;entryY=0;entryDx=0;entryDy=0;" parent="1" source="z5o7_3_p9fjKzpceReI_-46" target="z5o7_3_p9fjKzpceReI_-47" edge="1">
          <mxGeometry relative="1" as="geometry" />
        </mxCell>
        <mxCell id="z5o7_3_p9fjKzpceReI_-46" value="右包含" style="rhombus;whiteSpace=wrap;html=1;" parent="1" vertex="1">
          <mxGeometry x="630" y="350" width="80" height="40" as="geometry" />
        </mxCell>
        <mxCell id="z5o7_3_p9fjKzpceReI_-47" value="左包含处理" style="rounded=1;whiteSpace=wrap;html=1;" parent="1" vertex="1">
          <mxGeometry x="747" y="410" width="80" height="30" as="geometry" />
        </mxCell>
        <mxCell id="z5o7_3_p9fjKzpceReI_-52" style="edgeStyle=orthogonalEdgeStyle;rounded=0;orthogonalLoop=1;jettySize=auto;html=1;exitX=0.5;exitY=1;exitDx=0;exitDy=0;entryX=0.5;entryY=0;entryDx=0;entryDy=0;" parent="1" source="z5o7_3_p9fjKzpceReI_-50" target="z5o7_3_p9fjKzpceReI_-46" edge="1">
          <mxGeometry relative="1" as="geometry" />
        </mxCell>
        <mxCell id="z5o7_3_p9fjKzpceReI_-50" value="开始" style="shape=hexagon;perimeter=hexagonPerimeter2;whiteSpace=wrap;html=1;fixedSize=1;" parent="1" vertex="1">
          <mxGeometry x="620" y="300" width="100" height="30" as="geometry" />
        </mxCell>
        <mxCell id="z5o7_3_p9fjKzpceReI_-51" value="结束" style="shape=hexagon;perimeter=hexagonPerimeter2;whiteSpace=wrap;html=1;fixedSize=1;" parent="1" vertex="1">
          <mxGeometry x="620" y="470" width="100" height="30" as="geometry" />
        </mxCell>
        <mxCell id="z5o7_3_p9fjKzpceReI_-55" value="复杂包含K线处理" style="rounded=1;whiteSpace=wrap;html=1;fillColor=#dae8fc;strokeColor=#6c8ebf;verticalAlign=top;align=left;" parent="1" vertex="1">
          <mxGeometry x="550" y="555" width="510" height="335" as="geometry" />
        </mxCell>
        <mxCell id="z5o7_3_p9fjKzpceReI_-58" style="edgeStyle=orthogonalEdgeStyle;rounded=0;orthogonalLoop=1;jettySize=auto;html=1;exitX=0.5;exitY=1;exitDx=0;exitDy=0;" parent="1" source="z5o7_3_p9fjKzpceReI_-60" target="z5o7_3_p9fjKzpceReI_-65" edge="1">
          <mxGeometry relative="1" as="geometry">
            <mxPoint x="669.9655172413793" y="700" as="targetPoint" />
          </mxGeometry>
        </mxCell>
        <mxCell id="z5o7_3_p9fjKzpceReI_-60" value="右包含" style="rhombus;whiteSpace=wrap;html=1;" parent="1" vertex="1">
          <mxGeometry x="630" y="640" width="80" height="40" as="geometry" />
        </mxCell>
        <mxCell id="z5o7_3_p9fjKzpceReI_-62" style="edgeStyle=orthogonalEdgeStyle;rounded=0;orthogonalLoop=1;jettySize=auto;html=1;exitX=0.5;exitY=1;exitDx=0;exitDy=0;entryX=0.5;entryY=0;entryDx=0;entryDy=0;" parent="1" source="z5o7_3_p9fjKzpceReI_-63" target="z5o7_3_p9fjKzpceReI_-60" edge="1">
          <mxGeometry relative="1" as="geometry" />
        </mxCell>
        <mxCell id="z5o7_3_p9fjKzpceReI_-63" value="开始" style="shape=hexagon;perimeter=hexagonPerimeter2;whiteSpace=wrap;html=1;fixedSize=1;" parent="1" vertex="1">
          <mxGeometry x="620" y="590" width="100" height="30" as="geometry" />
        </mxCell>
        <mxCell id="z5o7_3_p9fjKzpceReI_-64" value="结束" style="shape=hexagon;perimeter=hexagonPerimeter2;whiteSpace=wrap;html=1;fixedSize=1;" parent="1" vertex="1">
          <mxGeometry x="620" y="830" width="100" height="30" as="geometry" />
        </mxCell>
        <mxCell id="z5o7_3_p9fjKzpceReI_-68" style="edgeStyle=orthogonalEdgeStyle;rounded=0;orthogonalLoop=1;jettySize=auto;html=1;exitX=0.5;exitY=1;exitDx=0;exitDy=0;entryX=0.5;entryY=0;entryDx=0;entryDy=0;" parent="1" source="z5o7_3_p9fjKzpceReI_-65" target="z5o7_3_p9fjKzpceReI_-66" edge="1">
          <mxGeometry relative="1" as="geometry" />
        </mxCell>
        <mxCell id="z5o7_3_p9fjKzpceReI_-70" style="edgeStyle=orthogonalEdgeStyle;rounded=0;orthogonalLoop=1;jettySize=auto;html=1;exitX=1;exitY=0.5;exitDx=0;exitDy=0;" parent="1" source="z5o7_3_p9fjKzpceReI_-65" target="z5o7_3_p9fjKzpceReI_-67" edge="1">
          <mxGeometry relative="1" as="geometry" />
        </mxCell>
        <mxCell id="z5o7_3_p9fjKzpceReI_-65" value="向上K线" style="rhombus;whiteSpace=wrap;html=1;" parent="1" vertex="1">
          <mxGeometry x="630" y="701" width="80" height="40" as="geometry" />
        </mxCell>
        <mxCell id="z5o7_3_p9fjKzpceReI_-69" style="edgeStyle=orthogonalEdgeStyle;rounded=0;orthogonalLoop=1;jettySize=auto;html=1;exitX=0.5;exitY=1;exitDx=0;exitDy=0;" parent="1" source="z5o7_3_p9fjKzpceReI_-66" target="z5o7_3_p9fjKzpceReI_-64" edge="1">
          <mxGeometry relative="1" as="geometry" />
        </mxCell>
        <mxCell id="z5o7_3_p9fjKzpceReI_-66" value="向上右包含处理" style="rounded=1;whiteSpace=wrap;html=1;" parent="1" vertex="1">
          <mxGeometry x="630" y="760" width="80" height="30" as="geometry" />
        </mxCell>
        <mxCell id="z5o7_3_p9fjKzpceReI_-73" style="edgeStyle=orthogonalEdgeStyle;rounded=0;orthogonalLoop=1;jettySize=auto;html=1;exitX=0.5;exitY=1;exitDx=0;exitDy=0;entryX=0.5;entryY=0;entryDx=0;entryDy=0;" parent="1" source="z5o7_3_p9fjKzpceReI_-67" target="z5o7_3_p9fjKzpceReI_-64" edge="1">
          <mxGeometry relative="1" as="geometry">
            <Array as="points">
              <mxPoint x="780" y="810" />
              <mxPoint x="670" y="810" />
            </Array>
          </mxGeometry>
        </mxCell>
        <mxCell id="z5o7_3_p9fjKzpceReI_-67" value="向下右包含处理" style="rounded=1;whiteSpace=wrap;html=1;" parent="1" vertex="1">
          <mxGeometry x="740" y="706" width="80" height="30" as="geometry" />
        </mxCell>
        <mxCell id="z5o7_3_p9fjKzpceReI_-80" style="edgeStyle=orthogonalEdgeStyle;rounded=0;orthogonalLoop=1;jettySize=auto;html=1;exitX=0.5;exitY=1;exitDx=0;exitDy=0;entryX=0.5;entryY=0;entryDx=0;entryDy=0;" parent="1" source="z5o7_3_p9fjKzpceReI_-74" target="z5o7_3_p9fjKzpceReI_-64" edge="1">
          <mxGeometry relative="1" as="geometry">
            <Array as="points">
              <mxPoint x="1000" y="810" />
              <mxPoint x="670" y="810" />
            </Array>
          </mxGeometry>
        </mxCell>
        <mxCell id="z5o7_3_p9fjKzpceReI_-74" value="向下左包含处理" style="rounded=1;whiteSpace=wrap;html=1;" parent="1" vertex="1">
          <mxGeometry x="960" y="706" width="80" height="30" as="geometry" />
        </mxCell>
        <mxCell id="z5o7_3_p9fjKzpceReI_-78" style="edgeStyle=orthogonalEdgeStyle;rounded=0;orthogonalLoop=1;jettySize=auto;html=1;exitX=0.5;exitY=1;exitDx=0;exitDy=0;entryX=0.5;entryY=0;entryDx=0;entryDy=0;" parent="1" source="z5o7_3_p9fjKzpceReI_-75" target="z5o7_3_p9fjKzpceReI_-77" edge="1">
          <mxGeometry relative="1" as="geometry" />
        </mxCell>
        <mxCell id="z5o7_3_p9fjKzpceReI_-79" style="edgeStyle=orthogonalEdgeStyle;rounded=0;orthogonalLoop=1;jettySize=auto;html=1;exitX=1;exitY=0.5;exitDx=0;exitDy=0;" parent="1" source="z5o7_3_p9fjKzpceReI_-75" target="z5o7_3_p9fjKzpceReI_-74" edge="1">
          <mxGeometry relative="1" as="geometry" />
        </mxCell>
        <mxCell id="z5o7_3_p9fjKzpceReI_-75" value="向上K线" style="rhombus;whiteSpace=wrap;html=1;" parent="1" vertex="1">
          <mxGeometry x="850" y="701" width="80" height="40" as="geometry" />
        </mxCell>
        <mxCell id="z5o7_3_p9fjKzpceReI_-76" style="edgeStyle=orthogonalEdgeStyle;rounded=0;orthogonalLoop=1;jettySize=auto;html=1;exitX=1;exitY=0.5;exitDx=0;exitDy=0;entryX=0.478;entryY=0.119;entryDx=0;entryDy=0;entryPerimeter=0;" parent="1" source="z5o7_3_p9fjKzpceReI_-60" target="z5o7_3_p9fjKzpceReI_-75" edge="1">
          <mxGeometry relative="1" as="geometry" />
        </mxCell>
        <mxCell id="z5o7_3_p9fjKzpceReI_-81" style="edgeStyle=orthogonalEdgeStyle;rounded=0;orthogonalLoop=1;jettySize=auto;html=1;exitX=0.5;exitY=1;exitDx=0;exitDy=0;entryX=0.5;entryY=0;entryDx=0;entryDy=0;" parent="1" source="z5o7_3_p9fjKzpceReI_-77" target="z5o7_3_p9fjKzpceReI_-64" edge="1">
          <mxGeometry relative="1" as="geometry">
            <Array as="points">
              <mxPoint x="890" y="810" />
              <mxPoint x="670" y="810" />
            </Array>
          </mxGeometry>
        </mxCell>
        <mxCell id="z5o7_3_p9fjKzpceReI_-77" value="向上左包含处理" style="rounded=1;whiteSpace=wrap;html=1;" parent="1" vertex="1">
          <mxGeometry x="850" y="760" width="80" height="30" as="geometry" />
        </mxCell>
        <mxCell id="z5o7_3_p9fjKzpceReI_-82" value="&lt;h1 style=&quot;margin-top: 0px;&quot;&gt;主逻辑说明&lt;/h1&gt;&lt;p style=&quot;font-size: 15px;&quot;&gt;&lt;font style=&quot;font-size: 15px;&quot;&gt;先拿两根K线来判断，确认是独立K线还是包含K线项。&lt;/font&gt;&lt;/p&gt;&lt;p style=&quot;font-size: 15px;&quot;&gt;&lt;font style=&quot;font-size: 15px;&quot;&gt;然后循环判断是独立K线还是合并K线，独立K线的处理同前，包含K线的话，就得区分方向是向上还是向下的处理。&lt;/font&gt;&lt;/p&gt;&lt;p style=&quot;font-size: 15px;&quot;&gt;独立K线的处理：然后将当前K线索引赋给前K线，将独立K线索引+1，然后将当前K线值赋给独立K线，最后将给定的K线方向赋给全局变量和独立K线的方向&lt;/p&gt;&lt;p style=&quot;font-size: 15px;&quot;&gt;合并K线的处理：将当前的最高最低给到独立K线的最高最低，更新独立K线的极值索引，更新最后K线的索引&lt;/p&gt;&lt;p style=&quot;font-size: 15px;&quot;&gt;&lt;font style=&quot;font-size: 15px;&quot;&gt;&lt;br&gt;&lt;/font&gt;&lt;/p&gt;" style="text;html=1;whiteSpace=wrap;overflow=hidden;rounded=0;" parent="1" vertex="1">
          <mxGeometry x="130" y="900" width="1040" height="220" as="geometry" />
        </mxCell>
        <mxCell id="xOXY9GwJXC3DuhucZ7PX-22" value="" style="group" vertex="1" connectable="0" parent="1">
          <mxGeometry x="1170" y="660" width="280" height="330" as="geometry" />
        </mxCell>
        <mxCell id="xOXY9GwJXC3DuhucZ7PX-21" value="包含K线的处理" style="rounded=1;whiteSpace=wrap;html=1;fillColor=#dae8fc;strokeColor=#6c8ebf;verticalAlign=top;align=left;" vertex="1" parent="xOXY9GwJXC3DuhucZ7PX-22">
          <mxGeometry width="280" height="330" as="geometry" />
        </mxCell>
        <mxCell id="xOXY9GwJXC3DuhucZ7PX-17" style="edgeStyle=orthogonalEdgeStyle;rounded=0;orthogonalLoop=1;jettySize=auto;html=1;exitX=0.5;exitY=1;exitDx=0;exitDy=0;entryX=0.5;entryY=0;entryDx=0;entryDy=0;" edge="1" parent="xOXY9GwJXC3DuhucZ7PX-22" source="xOXY9GwJXC3DuhucZ7PX-12" target="xOXY9GwJXC3DuhucZ7PX-13">
          <mxGeometry relative="1" as="geometry" />
        </mxCell>
        <mxCell id="xOXY9GwJXC3DuhucZ7PX-12" value="开始" style="shape=hexagon;perimeter=hexagonPerimeter2;whiteSpace=wrap;html=1;fixedSize=1;" vertex="1" parent="xOXY9GwJXC3DuhucZ7PX-22">
          <mxGeometry x="80" y="32" width="120" height="30" as="geometry" />
        </mxCell>
        <mxCell id="xOXY9GwJXC3DuhucZ7PX-18" style="edgeStyle=orthogonalEdgeStyle;rounded=0;orthogonalLoop=1;jettySize=auto;html=1;exitX=0.5;exitY=1;exitDx=0;exitDy=0;" edge="1" parent="xOXY9GwJXC3DuhucZ7PX-22" source="xOXY9GwJXC3DuhucZ7PX-13" target="xOXY9GwJXC3DuhucZ7PX-14">
          <mxGeometry relative="1" as="geometry" />
        </mxCell>
        <mxCell id="xOXY9GwJXC3DuhucZ7PX-13" value="更新独立K线最高和最低" style="rounded=1;whiteSpace=wrap;html=1;" vertex="1" parent="xOXY9GwJXC3DuhucZ7PX-22">
          <mxGeometry x="100" y="92" width="80" height="30" as="geometry" />
        </mxCell>
        <mxCell id="xOXY9GwJXC3DuhucZ7PX-19" style="edgeStyle=orthogonalEdgeStyle;rounded=0;orthogonalLoop=1;jettySize=auto;html=1;exitX=0.5;exitY=1;exitDx=0;exitDy=0;entryX=0.5;entryY=0;entryDx=0;entryDy=0;" edge="1" parent="xOXY9GwJXC3DuhucZ7PX-22" source="xOXY9GwJXC3DuhucZ7PX-14" target="xOXY9GwJXC3DuhucZ7PX-15">
          <mxGeometry relative="1" as="geometry" />
        </mxCell>
        <mxCell id="xOXY9GwJXC3DuhucZ7PX-14" value="更新独立K线索引" style="rounded=1;whiteSpace=wrap;html=1;" vertex="1" parent="xOXY9GwJXC3DuhucZ7PX-22">
          <mxGeometry x="100" y="147" width="80" height="30" as="geometry" />
        </mxCell>
        <mxCell id="xOXY9GwJXC3DuhucZ7PX-20" style="edgeStyle=orthogonalEdgeStyle;rounded=0;orthogonalLoop=1;jettySize=auto;html=1;exitX=0.5;exitY=1;exitDx=0;exitDy=0;" edge="1" parent="xOXY9GwJXC3DuhucZ7PX-22" source="xOXY9GwJXC3DuhucZ7PX-15" target="xOXY9GwJXC3DuhucZ7PX-16">
          <mxGeometry relative="1" as="geometry" />
        </mxCell>
        <mxCell id="xOXY9GwJXC3DuhucZ7PX-15" value="更新极值的索引" style="rounded=1;whiteSpace=wrap;html=1;" vertex="1" parent="xOXY9GwJXC3DuhucZ7PX-22">
          <mxGeometry x="100" y="207" width="80" height="30" as="geometry" />
        </mxCell>
        <mxCell id="xOXY9GwJXC3DuhucZ7PX-16" value="结束" style="shape=hexagon;perimeter=hexagonPerimeter2;whiteSpace=wrap;html=1;fixedSize=1;" vertex="1" parent="xOXY9GwJXC3DuhucZ7PX-22">
          <mxGeometry x="80" y="267" width="120" height="30" as="geometry" />
        </mxCell>
        <mxCell id="xOXY9GwJXC3DuhucZ7PX-23" value="" style="group" vertex="1" connectable="0" parent="1">
          <mxGeometry x="1160" y="280" width="280" height="330" as="geometry" />
        </mxCell>
        <mxCell id="xOXY9GwJXC3DuhucZ7PX-11" value="独立K线的处理" style="rounded=1;whiteSpace=wrap;html=1;fillColor=#dae8fc;strokeColor=#6c8ebf;verticalAlign=top;align=left;" vertex="1" parent="xOXY9GwJXC3DuhucZ7PX-23">
          <mxGeometry width="280" height="330" as="geometry" />
        </mxCell>
        <mxCell id="xOXY9GwJXC3DuhucZ7PX-3" style="edgeStyle=orthogonalEdgeStyle;rounded=0;orthogonalLoop=1;jettySize=auto;html=1;exitX=0.5;exitY=1;exitDx=0;exitDy=0;" edge="1" parent="xOXY9GwJXC3DuhucZ7PX-23" source="CYBTUpl9YgCQLdti6vpj-1">
          <mxGeometry relative="1" as="geometry">
            <mxPoint x="150" y="70" as="targetPoint" />
          </mxGeometry>
        </mxCell>
        <mxCell id="CYBTUpl9YgCQLdti6vpj-1" value="开始" style="shape=hexagon;perimeter=hexagonPerimeter2;whiteSpace=wrap;html=1;fixedSize=1;" parent="xOXY9GwJXC3DuhucZ7PX-23" vertex="1">
          <mxGeometry x="90" y="20" width="120" height="30" as="geometry" />
        </mxCell>
        <mxCell id="xOXY9GwJXC3DuhucZ7PX-4" style="edgeStyle=orthogonalEdgeStyle;rounded=0;orthogonalLoop=1;jettySize=auto;html=1;exitX=0.5;exitY=1;exitDx=0;exitDy=0;entryX=0.5;entryY=0;entryDx=0;entryDy=0;" edge="1" parent="xOXY9GwJXC3DuhucZ7PX-23" source="xOXY9GwJXC3DuhucZ7PX-1" target="xOXY9GwJXC3DuhucZ7PX-2">
          <mxGeometry relative="1" as="geometry" />
        </mxCell>
        <mxCell id="xOXY9GwJXC3DuhucZ7PX-1" value="当前索引给到前一个" style="rounded=1;whiteSpace=wrap;html=1;" vertex="1" parent="xOXY9GwJXC3DuhucZ7PX-23">
          <mxGeometry x="110" y="70" width="80" height="30" as="geometry" />
        </mxCell>
        <mxCell id="xOXY9GwJXC3DuhucZ7PX-8" style="edgeStyle=orthogonalEdgeStyle;rounded=0;orthogonalLoop=1;jettySize=auto;html=1;exitX=0.5;exitY=1;exitDx=0;exitDy=0;" edge="1" parent="xOXY9GwJXC3DuhucZ7PX-23" source="xOXY9GwJXC3DuhucZ7PX-2" target="xOXY9GwJXC3DuhucZ7PX-5">
          <mxGeometry relative="1" as="geometry" />
        </mxCell>
        <mxCell id="xOXY9GwJXC3DuhucZ7PX-2" value="独立K线索引+1" style="rounded=1;whiteSpace=wrap;html=1;" vertex="1" parent="xOXY9GwJXC3DuhucZ7PX-23">
          <mxGeometry x="110" y="125" width="80" height="30" as="geometry" />
        </mxCell>
        <mxCell id="xOXY9GwJXC3DuhucZ7PX-9" style="edgeStyle=orthogonalEdgeStyle;rounded=0;orthogonalLoop=1;jettySize=auto;html=1;exitX=0.5;exitY=1;exitDx=0;exitDy=0;entryX=0.5;entryY=0;entryDx=0;entryDy=0;" edge="1" parent="xOXY9GwJXC3DuhucZ7PX-23" source="xOXY9GwJXC3DuhucZ7PX-5" target="xOXY9GwJXC3DuhucZ7PX-6">
          <mxGeometry relative="1" as="geometry" />
        </mxCell>
        <mxCell id="xOXY9GwJXC3DuhucZ7PX-5" value="当前索引值赋值给独立K线" style="rounded=1;whiteSpace=wrap;html=1;" vertex="1" parent="xOXY9GwJXC3DuhucZ7PX-23">
          <mxGeometry x="110" y="175" width="80" height="30" as="geometry" />
        </mxCell>
        <mxCell id="xOXY9GwJXC3DuhucZ7PX-10" style="edgeStyle=orthogonalEdgeStyle;rounded=0;orthogonalLoop=1;jettySize=auto;html=1;exitX=0.5;exitY=1;exitDx=0;exitDy=0;entryX=0.5;entryY=0;entryDx=0;entryDy=0;" edge="1" parent="xOXY9GwJXC3DuhucZ7PX-23" source="xOXY9GwJXC3DuhucZ7PX-6" target="xOXY9GwJXC3DuhucZ7PX-7">
          <mxGeometry relative="1" as="geometry" />
        </mxCell>
        <mxCell id="xOXY9GwJXC3DuhucZ7PX-6" value="独立K线方向更新" style="rounded=1;whiteSpace=wrap;html=1;" vertex="1" parent="xOXY9GwJXC3DuhucZ7PX-23">
          <mxGeometry x="110" y="230" width="80" height="30" as="geometry" />
        </mxCell>
        <mxCell id="xOXY9GwJXC3DuhucZ7PX-7" value="结束" style="shape=hexagon;perimeter=hexagonPerimeter2;whiteSpace=wrap;html=1;fixedSize=1;" vertex="1" parent="xOXY9GwJXC3DuhucZ7PX-23">
          <mxGeometry x="90" y="280" width="120" height="30" as="geometry" />
        </mxCell>
      </root>
    </mxGraphModel>
  </diagram>
</mxfile>
